<svg width="73" height="73" viewBox="0 0 73 73" fill="none" xmlns="http://www.w3.org/2000/svg">
<path d="M68.7487 0.432129H3.27369C1.70407 0.432129 0.431641 1.70456 0.431641 3.27417V68.7492C0.431641 70.3189 1.70407 71.5913 3.27369 71.5913H68.7487C70.3184 71.5913 71.5908 70.3189 71.5908 68.7492V3.27417C71.5908 1.70456 70.3184 0.432129 68.7487 0.432129Z" fill="#5C2682"/>
<path d="M14.1795 29.1207V31.7495H19.9947V34.1702H14.1795V38.8885H11.498V26.7007H20.7775V29.1207H14.1795Z" fill="white"/>
<path d="M32.6518 37.8257C32.3102 38.0958 31.9394 38.3265 31.5462 38.5136C31.1273 38.7104 30.6859 38.8556 30.2318 38.9457C29.7043 39.0494 29.1676 39.0991 28.63 39.0941C27.7756 39.1019 26.9285 38.936 26.1402 38.6065C25.3975 38.2972 24.723 37.8447 24.1552 37.2748C23.5924 36.7031 23.1486 36.0255 22.8494 35.2812C22.5334 34.5014 22.3736 33.6672 22.3791 32.8259V32.7913C22.3727 31.952 22.5326 31.1198 22.8494 30.3425C23.1525 29.5979 23.5958 28.9184 24.1552 28.341C24.7243 27.758 25.4054 27.296 26.1574 26.9826C26.9752 26.6456 27.8529 26.4784 28.7373 26.4914C29.2599 26.4875 29.7816 26.534 30.2952 26.6304C30.7337 26.7144 31.1625 26.8428 31.575 27.0136C31.9496 27.1717 32.3059 27.3702 32.6374 27.6056C32.9596 27.8358 33.2624 28.0922 33.5427 28.372L31.8343 30.3389C31.3981 29.9378 30.9088 29.5986 30.3802 29.3306C29.8617 29.0815 29.2923 28.9565 28.7172 28.9654C28.2284 28.9609 27.7444 29.0619 27.2983 29.2614C26.871 29.4528 26.4885 29.7315 26.1754 30.0796C25.8584 30.4338 25.6105 30.8442 25.4444 31.2896C25.268 31.76 25.1793 32.2587 25.183 32.7611V32.7956C25.1799 33.3007 25.2685 33.8022 25.4444 34.2757C25.6079 34.7226 25.852 35.1356 26.1646 35.4944C26.4835 35.8551 26.8764 36.1429 27.3165 36.3381C27.7566 36.5334 28.2336 36.6315 28.715 36.6258C29.4117 36.6258 30.0009 36.4981 30.4825 36.2427C31.0046 35.9585 31.4874 35.6075 31.9186 35.1983L33.6248 36.9219C33.3238 37.2473 32.9985 37.5495 32.6518 37.8257Z" fill="white"/>
<path d="M45.3085 38.8885V30.9313L41.878 36.1372H41.806L38.4108 30.9839V38.8885H35.7676V26.7007H38.6572L41.8608 31.8547L45.0644 26.7007H47.9547V38.8885H45.3085Z" fill="white"/>
<path d="M60.9015 37.008C60.6859 37.4272 60.3693 37.7861 59.9803 38.0523C59.5424 38.3475 59.0542 38.5601 58.5398 38.6796C57.9264 38.8248 57.2976 38.8949 56.6672 38.8885H50.8809V26.7007H56.5297C57.7805 26.7007 58.7621 26.9852 59.4747 27.5542C60.1872 28.1231 60.5438 28.8892 60.5442 29.8524V29.8906C60.5492 30.2031 60.5052 30.5144 60.4139 30.8132C60.3327 31.0682 60.2164 31.3106 60.0682 31.5335C59.9271 31.7446 59.7575 31.9351 59.564 32.0996C59.3755 32.2611 59.1697 32.4012 58.9504 32.5173C59.6548 32.7847 60.2093 33.1475 60.6141 33.6056C61.0189 34.0636 61.221 34.6979 61.2205 35.5084V35.543C61.2329 36.0498 61.1235 36.5522 60.9015 37.008ZM57.8974 30.3047C57.8974 29.8985 57.7466 29.5881 57.4451 29.3735C57.1435 29.1588 56.7083 29.0515 56.1393 29.0515H53.4924V31.6278H55.9628C56.5549 31.6278 57.0249 31.5263 57.3731 31.3231C57.7212 31.12 57.8952 30.7921 57.8952 30.3393L57.8974 30.3047ZM58.5766 35.18C58.5829 34.9926 58.5433 34.8064 58.4613 34.6377C58.3794 34.469 58.2575 34.3229 58.1063 34.212C57.7927 33.9743 57.2885 33.8543 56.5938 33.8519H53.4968V36.5333H56.6831C57.2751 36.5333 57.7394 36.426 58.076 36.2114C58.4126 35.9968 58.5806 35.663 58.5802 35.2103L58.5766 35.18Z" fill="white"/>
<path d="M61.0188 46.6973V52.6651H11.2305V49.5263C11.2304 49.1548 11.3035 48.7869 11.4456 48.4436C11.5878 48.1003 11.7962 47.7884 12.0589 47.5257C12.3216 47.263 12.6335 47.0546 12.9768 46.9124C13.3201 46.7703 13.688 46.6972 14.0595 46.6973H61.0188Z" fill="#FAB613"/>
<path d="M11.2305 54.5977H61.0188V60.5655H14.0595C13.6879 60.5656 13.32 60.4925 12.9766 60.3503C12.6333 60.2081 12.3214 59.9997 12.0586 59.7369C11.7959 59.4741 11.5875 59.1621 11.4454 58.8187C11.3033 58.4753 11.2303 58.1073 11.2305 57.7357V54.5977Z" fill="#FAB613"/>
</svg>
