<svg width="111" height="32" viewBox="0 0 111 32" fill="none" xmlns="http://www.w3.org/2000/svg">
<g clip-path="url(#clip0_645_8082)">
<path d="M40.065 6.12793C38.4503 6.12793 37.1336 6.59725 36.1648 7.56058C35.1959 8.52391 34.7239 9.78363 34.7239 11.3891V12.6983H32.3887V15.8106H34.7239V25.4686H38.326V15.8106H41.3072V12.6983H38.326V11.2904C38.326 10.08 39.2204 9.26491 40.4873 9.26491C40.7606 9.26491 41.0339 9.28961 41.332 9.31432V6.20204C40.9593 6.15263 40.537 6.12793 40.065 6.12793Z" fill="black"/>
<path d="M46.0977 6.27588H42.4707V25.4683H46.0977V6.27588Z" fill="black"/>
<path d="M50.4948 6.35043C48.6813 6.25162 47.5634 8.82048 48.9546 10.0555C49.7744 10.8707 51.2152 10.8707 52.035 10.0555C52.4574 9.63559 52.681 9.11687 52.681 8.5241C52.681 7.31373 51.7121 6.35043 50.4948 6.35043ZM52.3083 12.6985H48.6813V25.4687H52.3083V12.6985Z" fill="black"/>
<path d="M60.3791 12.4512C58.5656 12.4512 57.0751 13.0687 55.9075 14.279C54.7648 15.4894 54.1934 17.0949 54.1934 19.0957C54.1934 21.0964 54.7648 22.702 55.9075 23.9123C57.0751 25.1226 58.5656 25.7401 60.3791 25.7401C61.9939 25.7401 63.1863 25.2955 64.0062 24.3816V31.7671H67.6084V12.6982H64.2048V14.032C63.41 12.9699 62.143 12.4512 60.3791 12.4512ZM60.9754 15.5387C62.7889 15.5387 64.0062 16.7985 64.0062 18.7992V19.3921C64.0062 21.3928 62.7889 22.6526 60.9754 22.6526C59.1122 22.6526 57.8701 21.3434 57.8701 19.0957C57.8701 16.8479 59.1122 15.5387 60.9754 15.5387Z" fill="black"/>
<path d="M77.4267 12.4512C75.6875 12.4512 74.4205 12.9699 73.6256 14.032V12.6982H70.1973V31.7671H73.8247V24.3816C74.6442 25.2955 75.8618 25.7401 77.4267 25.7401C79.2648 25.7401 80.7556 25.1226 81.8983 23.9123C83.0659 22.702 83.6369 21.0964 83.6369 19.0957C83.6369 17.0949 83.0659 15.4894 81.8983 14.279C80.7556 13.0687 79.2648 12.4512 77.4267 12.4512ZM76.855 15.5387C78.7184 15.5387 79.9607 16.8479 79.9607 19.0957C79.9607 21.3434 78.7184 22.6526 76.855 22.6526C75.0416 22.6526 73.8247 21.3928 73.8247 19.3921V18.7992C73.8247 16.7985 75.0416 15.5387 76.855 15.5387Z" fill="black"/>
<path d="M90.5219 12.4512C88.957 12.4512 87.6653 12.9205 86.6467 13.8591C85.6528 14.773 85.1559 15.8352 85.1559 17.0208L88.7833 17.169C88.7833 16.2551 89.4045 15.4894 90.572 15.4894C91.6901 15.4894 92.2364 16.1563 92.2364 17.4654V17.9594L89.9508 18.0829C86.5225 18.2312 84.8086 19.5156 84.8086 21.9609C84.8086 24.4063 86.423 25.7401 89.0812 25.7401C90.423 25.7401 91.5158 25.2955 92.3606 24.431V25.4684H95.8632V17.5889C95.8632 14.2296 94.0004 12.4512 90.5219 12.4512ZM92.2364 20.8741C92.2364 22.1832 91.292 22.9489 89.9261 22.9489C88.9323 22.9489 88.4354 22.5537 88.4354 21.788C88.4354 20.9482 89.0565 20.5036 90.2988 20.4542L92.2364 20.3307V20.8741Z" fill="black"/>
<path d="M110.416 12.6987H106.391L103.46 20.3065L100.503 12.6987H96.5039L101.522 24.3327L98.2425 31.7676H102.192L110.416 12.6987Z" fill="black"/>
<path fill-rule="evenodd" clip-rule="evenodd" d="M0.714844 2.75701C0.714844 1.04117 2.02864 -0.0446013 3.6495 0.331916L21.2799 4.42735C22.9006 4.80385 24.2145 6.02891 24.2145 7.16658V24.459C24.2145 25.5953 22.9007 26.8217 21.2799 27.1983L3.6495 31.2937C2.02874 31.6702 0.714844 30.5864 0.714844 28.8686V2.75701ZM5.70853 9.10086C5.70853 7.71542 6.85304 6.75594 8.26207 6.95735L15.9252 8.05277C17.3355 8.25437 18.4787 9.31079 18.4787 10.413C18.4787 11.5148 17.3342 12.3365 15.9252 12.2483L8.26207 11.7691C6.8518 11.6809 5.70853 10.4866 5.70853 9.10086ZM5.57263 15.8128C5.57263 14.3788 6.75732 13.2638 8.2158 13.3225L16.148 13.6414C17.6078 13.7001 18.7912 14.672 18.7912 15.8128C18.7912 16.9533 17.6065 17.9256 16.148 17.9842L8.2158 18.3031C6.75603 18.3619 5.57263 17.2472 5.57263 15.8128ZM8.64598 25.176C10.2683 24.9296 11.5835 23.5557 11.5835 22.1072C11.5835 20.6588 10.2683 19.5668 8.64598 19.6683C7.02368 19.7697 5.70853 21.1436 5.70853 22.7371C5.70853 24.3305 7.02368 25.4224 8.64598 25.176Z" fill="url(#paint0_linear_645_8082)"/>
</g>
<defs>
<linearGradient id="paint0_linear_645_8082" x1="-20.041" y1="-16.9648" x2="-20.7834" y2="70.2221" gradientUnits="userSpaceOnUse">
<stop stop-color="#1400FF"/>
<stop offset="1" stop-color="#FC199B"/>
</linearGradient>
<clipPath id="clip0_645_8082">
<rect width="110.286" height="31.5103" fill="white" transform="translate(0.714844 0.256836)"/>
</clipPath>
</defs>
</svg>
