<svg width="148" height="32" viewBox="0 0 148 32" fill="none" xmlns="http://www.w3.org/2000/svg">
<g clip-path="url(#clip0_645_8351)">
<path d="M27.8639 8.08295L14.1974 15.9573V31.7124L0.576172 23.8381V8.08295L14.1974 0.202148L27.8639 8.08295ZM21.1831 27.6909L27.8639 23.8381V16.1453L21.1831 19.9982V27.6909Z" fill="url(#paint0_linear_645_8351)"/>
<path d="M47.0377 9.87334C45.5585 9.85936 44.119 10.3514 42.9579 11.2679V10.2625H40.5645V22.7939H42.9579V14.1348C43.3916 13.5366 43.957 13.0458 44.6104 12.7005C45.2638 12.3554 45.9877 12.1647 46.7264 12.1436C48.7955 12.1436 50.0279 13.4732 50.0279 15.7045V22.7939H52.4278V15.6591C52.4278 12.1824 50.2614 9.87334 47.0377 9.87334Z" fill="black"/>
<path d="M60.8984 9.93064C59.5886 9.93194 58.3085 10.3221 57.2206 11.0515C56.1326 11.781 55.2856 12.8171 54.7871 14.0284C54.2884 15.2396 54.1607 16.5717 54.4199 17.8557C54.679 19.1397 55.3135 20.3178 56.243 21.2409C57.1723 22.1639 58.3548 22.7903 59.6406 23.0407C60.9263 23.291 62.2575 23.154 63.4653 22.6471C64.6731 22.1403 65.7034 21.2862 66.4253 20.1933C67.1473 19.1003 67.5286 17.8176 67.5209 16.5077C67.5252 15.6389 67.3566 14.778 67.0248 13.9751C66.6929 13.1722 66.2046 12.4433 65.5881 11.8311C64.9718 11.219 64.2396 10.7356 63.4344 10.4093C62.6292 10.083 61.7672 9.9203 60.8984 9.93064ZM60.8984 20.9573C60.3296 20.9524 59.7675 20.8338 59.2451 20.6085C58.7227 20.3833 58.2506 20.0559 57.8566 19.6456C57.4626 19.2352 57.1546 18.7503 56.9507 18.2193C56.7469 17.6882 56.6513 17.1217 56.6694 16.5532C56.6237 15.9717 56.6989 15.3871 56.8901 14.836C57.0811 14.285 57.3843 13.7794 57.7802 13.3512C58.1762 12.9228 58.6564 12.5812 59.1909 12.3474C59.7252 12.1137 60.3022 11.9931 60.8854 11.9931C61.4687 11.9931 62.0457 12.1137 62.58 12.3474C63.1145 12.5812 63.5947 12.9228 63.9907 13.3512C64.3866 13.7794 64.6897 14.285 64.8808 14.836C65.072 15.3871 65.1472 15.9717 65.1015 16.5532C65.1187 17.1193 65.0233 17.6833 64.8207 18.2123C64.6182 18.7412 64.3124 19.2247 63.9213 19.6345C63.5303 20.0443 63.0616 20.3722 62.5427 20.5993C62.0238 20.8264 61.4648 20.9481 60.8984 20.9573Z" fill="black"/>
<path d="M72.0991 11.7607V10.2624H69.6992V22.7938H72.0991V14.7897C72.553 14.0341 73.192 13.4063 73.9557 12.9661C74.7195 12.5257 75.5829 12.2873 76.4644 12.2731H76.7822V9.93158H76.4644C75.6504 9.92186 74.8429 10.0792 74.0922 10.3938C73.3414 10.7084 72.663 11.1736 72.0991 11.7607Z" fill="black"/>
<path d="M83.7099 9.93184C82.847 9.91922 81.9904 10.0814 81.1917 10.4087C80.3932 10.7359 79.669 11.2214 79.063 11.8359C78.457 12.4504 77.9816 13.1812 77.6655 13.9844C77.3494 14.7874 77.1991 15.6462 77.2237 16.5089C77.1973 17.3729 77.3462 18.2335 77.6614 19.0385C77.9768 19.8435 78.4517 20.5762 79.0578 21.1927C79.6639 21.809 80.3887 22.2963 81.1881 22.625C81.9877 22.9538 82.8456 23.1173 83.7099 23.1055C86.4407 23.1055 88.6784 21.7109 89.4179 19.5445L89.567 19.1164H87.005L86.9142 19.298C86.4277 20.3293 85.2472 20.939 83.7618 20.939C82.7878 20.9686 81.8369 20.6394 81.0895 20.0141C80.3422 19.3887 79.8506 18.5107 79.7079 17.5467H89.4373L89.7876 17.7218L89.8395 17.2613C89.853 16.9999 89.853 16.7379 89.8395 16.4765C89.794 12.695 87.2255 9.93184 83.7099 9.93184ZM83.6581 12.0982C85.6558 12.0982 87.0504 13.3955 87.3618 15.5165H79.7079C79.8457 14.5688 80.3212 13.7028 81.0472 13.0782C81.7732 12.4535 82.7004 12.1124 83.6581 12.1177V12.0982Z" fill="black"/>
<path d="M98.4731 9.93205C97.043 9.91502 95.6474 10.3711 94.5035 11.2293V3.88037H92.1035V22.7943H94.5035V21.8279C95.3392 22.4315 96.3053 22.8301 97.3235 22.9913C98.3419 23.1524 99.3838 23.0717 100.365 22.7557C101.346 22.4396 102.24 21.8971 102.973 21.1719C103.705 20.4467 104.257 19.5593 104.584 18.5813C104.91 17.6033 105.002 16.5624 104.851 15.5423C104.701 14.5224 104.312 13.5523 103.717 12.7103C103.122 11.8681 102.338 11.1779 101.427 10.6953C100.516 10.2127 99.5038 9.95121 98.4731 9.93205ZM94.5035 14.1092C94.9115 13.4854 95.4699 12.9743 96.1274 12.6228C96.7848 12.2715 97.5201 12.0911 98.2655 12.0985C99.4017 12.1422 100.477 12.6242 101.265 13.4435C102.054 14.2629 102.494 15.3558 102.494 16.4929C102.494 17.63 102.054 18.7229 101.265 19.5422C100.477 20.3616 99.4017 20.8437 98.2655 20.8874C97.5223 20.8986 96.7881 20.7229 96.1306 20.376C95.4732 20.0291 94.9137 19.5224 94.5035 18.9026V14.1092Z" fill="black"/>
<path d="M116.926 11.2285C116.09 10.6225 115.122 10.222 114.103 10.0595C113.082 9.89695 112.038 9.97694 111.055 10.293C110.072 10.609 109.176 11.1522 108.442 11.8785C107.708 12.6049 107.155 13.4939 106.828 14.4738C106.501 15.4536 106.41 16.4966 106.561 17.5183C106.713 18.54 107.102 19.5117 107.699 20.3548C108.296 21.1978 109.083 21.8883 109.996 22.3707C110.91 22.8529 111.924 23.1133 112.956 23.1307C114.386 23.1477 115.782 22.6917 116.926 21.8335V22.774H119.325V10.262H116.926V11.2285ZM116.926 19.012C116.511 19.6194 115.952 20.1148 115.299 20.4543C114.646 20.7937 113.919 20.9667 113.183 20.9579C112.609 20.9572 112.04 20.8412 111.51 20.6166C110.981 20.3919 110.502 20.0632 110.102 19.6501C109.702 19.2369 109.39 18.7477 109.182 18.2113C108.975 17.675 108.878 17.1024 108.896 16.5278C108.882 15.3797 109.325 14.2731 110.126 13.4509C110.927 12.6288 112.022 12.1584 113.171 12.143C113.907 12.1341 114.633 12.3072 115.285 12.6466C115.939 12.986 116.497 13.4815 116.913 14.0889L116.926 19.012Z" fill="black"/>
<path d="M128.933 15.5619L126.56 15.1533C124.49 14.8355 124.49 13.9209 124.49 13.6226C124.49 12.6301 125.581 11.9621 127.202 11.9621C128.285 11.9621 130.134 12.2344 130.406 14.0507L130.451 14.3295H132.702V13.9793C132.469 10.9696 129.608 9.89941 127.228 9.89941C124.192 9.89941 122.149 11.4431 122.149 13.7458C122.149 15.082 122.798 16.7683 125.943 17.2548L128.648 17.7218C129.186 17.7997 130.432 18.111 130.432 19.2786C130.432 20.3488 129.258 21.0623 127.513 21.0623C125.457 21.0623 124.27 20.2774 123.894 18.7207L123.835 18.4677H121.559L121.61 18.8375C122.013 21.633 124.088 23.1768 127.449 23.1768C130.691 23.1768 132.767 21.6072 132.767 19.1748C132.754 17.1964 131.463 15.9771 128.933 15.5619Z" fill="black"/>
<path d="M140.782 9.93184C139.919 9.91922 139.063 10.0814 138.264 10.4087C137.465 10.7359 136.741 11.2214 136.135 11.8359C135.529 12.4504 135.053 13.1812 134.738 13.9844C134.422 14.7874 134.271 15.6462 134.296 16.5089C134.27 17.3729 134.419 18.2335 134.734 19.0385C135.049 19.8435 135.524 20.5762 136.13 21.1927C136.736 21.809 137.46 22.2963 138.261 22.625C139.06 22.9538 139.918 23.1173 140.782 23.1055C143.513 23.1055 145.751 21.7109 146.49 19.5445L146.639 19.1164H144.078L143.986 19.298C143.5 20.3293 142.32 20.939 140.834 20.939C139.861 20.9669 138.912 20.6371 138.166 20.0118C137.42 19.3867 136.929 18.5096 136.786 17.5467H146.516L146.866 17.7218L146.918 17.2613C146.931 16.9999 146.931 16.7379 146.918 16.4765C146.866 12.695 144.298 9.93184 140.782 9.93184ZM140.731 12.0982C142.728 12.0982 144.123 13.3955 144.434 15.5165H136.786C136.924 14.5699 137.398 13.7048 138.123 13.0804C138.848 12.4559 139.774 12.114 140.731 12.1177V12.0982Z" fill="black"/>
</g>
<defs>
<linearGradient id="paint0_linear_645_8351" x1="7.39972" y1="27.7752" x2="21.0404" y2="4.13931" gradientUnits="userSpaceOnUse">
<stop stop-color="#FF8E00"/>
<stop offset="1" stop-color="#F06900"/>
</linearGradient>
<clipPath id="clip0_645_8351">
<rect width="147.423" height="31.5103" fill="white" transform="translate(0.576172 0.20166)"/>
</clipPath>
</defs>
</svg>
