<svg width="114" height="28" viewBox="0 0 114 28" fill="none" xmlns="http://www.w3.org/2000/svg">
<g clip-path="url(#clip0_645_8068)">
<path fill-rule="evenodd" clip-rule="evenodd" d="M14.1026 27.5161C21.5645 27.5161 27.6135 21.47 27.6135 14.0117C27.6135 6.55345 21.5645 0.507324 14.1026 0.507324C6.64083 0.507324 0.591797 6.55345 0.591797 14.0117C0.591797 21.47 6.64083 27.5161 14.1026 27.5161ZM18.9786 21.079C17.5915 22.0415 15.9075 22.6054 14.0917 22.6054C9.34933 22.6054 5.50486 18.7579 5.50486 14.0117C5.50486 9.26558 9.34933 5.41806 14.0917 5.41806C18.8342 5.41806 22.6787 9.26558 22.6787 14.0117C22.6787 15.0712 22.4871 16.086 22.1367 17.0231C20.7777 16.53 19.2629 16.3826 17.8759 16.7155C18.4281 15.9454 18.7531 15.0012 18.7531 13.981C18.7531 11.3875 16.6524 9.28515 14.061 9.28515C11.4696 9.28515 9.3689 11.3875 9.3689 13.981C9.3689 16.5744 11.4696 18.6768 14.061 18.6768C14.6584 18.6768 15.2296 18.5651 15.7551 18.3615C17.0699 19.1241 18.2034 20.2185 18.9786 21.079ZM23.4496 19.9135C22.837 20.8807 22.0783 21.7463 21.2045 22.4792C20.2475 21.2169 18.3127 19.3108 16.1771 18.0937C18.1504 16.6152 21.2072 17.5607 23.4496 19.9135Z" fill="#3E2284"/>
<g opacity="0.15">
<path opacity="0.15" d="M26.499 8.63306C24.4219 3.85641 19.6624 0.514452 14.1211 0.506836C8.51539 0.514543 3.70982 3.93446 1.67188 8.8C2.89861 9.96417 4.29012 10.9564 5.80785 11.7382C6.80369 8.09507 10.135 5.41754 14.0912 5.41754C18.0168 5.41754 21.3272 8.05387 22.351 11.6539C23.8776 10.8478 25.2736 9.82745 26.499 8.63306Z" fill="white"/>
<path opacity="0.15" d="M18.6711 13.1006C18.2597 10.9275 16.3522 9.28418 14.0611 9.28418C11.7591 9.28418 9.84419 10.9433 9.44531 13.132C10.8994 13.5131 12.4256 13.716 13.9993 13.716C15.6155 13.716 17.1817 13.5019 18.6711 13.1006Z" fill="white"/>
</g>
<path d="M41.0301 7.0498C39.1191 7.0498 37.5483 7.70411 36.3179 8.98648C35.1139 10.2689 34.5117 11.97 34.5117 14.0899C34.5117 16.2098 35.1139 17.9109 36.3179 19.1933C37.5483 20.4757 39.1191 21.13 41.0301 21.13C42.7318 21.13 43.9883 20.6589 44.8522 19.6905V27.5158H48.648V7.31152H45.0615V8.72477C44.224 7.5994 42.8888 7.0498 41.0301 7.0498ZM41.6583 10.3212C43.5693 10.3212 44.8522 11.656 44.8522 13.7758V14.4039C44.8522 16.5238 43.5693 17.8586 41.6583 17.8586C39.6949 17.8586 38.3861 16.4715 38.3861 14.0899C38.3861 11.7083 39.6949 10.3212 41.6583 10.3212Z" fill="#3E2284"/>
<path d="M63.0815 7.31201H59.2594V14.954C59.2594 16.5243 58.3957 17.5712 56.9558 17.5712C55.5161 17.5712 54.7831 16.7075 54.7831 15.0064V7.31201H50.9609V15.8177C50.9609 19.1414 52.8458 21.1305 55.961 21.1305C57.6102 21.1305 58.7884 20.5809 59.4689 19.4817V20.8426H63.0815V7.31201Z" fill="#3E2284"/>
<path d="M67.3943 0.586432C65.4834 0.481746 64.3055 3.20356 65.7712 4.51212C66.6351 5.37577 68.1534 5.37577 69.0173 4.51212C69.4625 4.06723 69.6981 3.51763 69.6981 2.88951C69.6981 1.60711 68.6772 0.586432 67.3943 0.586432ZM69.3055 7.31245H65.4834V20.843H69.3055V7.31245Z" fill="#3E2284"/>
<path d="M85.1463 0.507324H81.3503V8.48956C80.5125 7.52124 79.2298 7.05014 77.5284 7.05014C75.6172 7.05014 74.0467 7.70445 72.8162 8.98682C71.6119 10.2692 71.0098 11.9704 71.0098 14.0902C71.0098 16.2101 71.6119 17.9112 72.8162 19.1936C74.0467 20.476 75.6172 21.1303 77.5284 21.1303C79.3346 21.1303 80.8007 20.4237 81.5598 19.4553V20.8424H85.1463V0.507324ZM78.1567 10.3216C80.0676 10.3216 81.3503 11.6563 81.3503 13.7762V14.3781C81.3503 16.5503 80.0676 17.8327 78.1567 17.8327C76.1932 17.8327 74.8842 16.4718 74.8842 14.0902C74.8842 11.7086 76.1932 10.3216 78.1567 10.3216Z" fill="#3E2284"/>
<path d="M92.8804 7.0498C91.2312 7.0498 89.8699 7.54707 88.7964 8.54159C87.7494 9.50991 87.2259 10.6353 87.2259 11.8915L91.0478 12.0485C91.0478 11.0802 91.7025 10.2689 92.9326 10.2689C94.1108 10.2689 94.6865 10.9755 94.6865 12.3626V12.886L92.2782 13.0169C88.6655 13.1739 86.8594 14.5348 86.8594 17.1258C86.8594 19.7167 88.5608 21.13 91.3621 21.13C92.7756 21.13 93.9274 20.6589 94.8174 19.7429V20.8421H98.5087V12.4935C98.5087 8.93415 96.5452 7.0498 92.8804 7.0498ZM94.6865 15.9742C94.6865 17.3613 93.6917 18.1726 92.2521 18.1726C91.2051 18.1726 90.6812 17.7539 90.6812 16.9426C90.6812 16.0527 91.3359 15.5817 92.6447 15.5293L94.6865 15.3985V15.9742Z" fill="#3E2284"/>
<path d="M113.006 7.31201H108.661L106.148 11.4471L103.635 7.31201H99.2889L103.451 14.0119L99.2363 20.8426H103.582L106.148 16.629L108.739 20.8426H113.111L108.818 14.0119L113.006 7.31201Z" fill="#3E2284"/>
</g>
<defs>
<clipPath id="clip0_645_8068">
<rect width="112.537" height="27.0088" fill="white" transform="translate(0.591797 0.507324)"/>
</clipPath>
</defs>
</svg>
