<svg width="61" height="72" viewBox="0 0 61 72" fill="none" xmlns="http://www.w3.org/2000/svg">
<g clip-path="url(#clip0_645_8056)">
<path d="M3.90291 58.5871H0.978516V57.1806H8.46231V58.5871H5.53792V66.0613H3.90291V58.5871ZM14.5371 63.1949H9.23329C9.41939 64.1727 10.2435 64.8022 11.4133 64.8022C11.7503 64.8178 12.0868 64.7615 12.4006 64.6368C12.7145 64.5122 12.9986 64.322 13.2344 64.0789L14.0851 65.0567C13.4737 65.78 12.5299 66.1551 11.3734 66.1551C9.11366 66.1551 7.65146 64.6951 7.65146 62.6725C7.65146 60.6499 9.16683 59.23 11.1607 59.23C13.1281 59.23 14.5637 60.6097 14.5637 62.726L14.5371 63.2083V63.1949ZM9.22 62.1367H13.0483C12.9287 61.1589 12.1843 60.4891 11.1474 60.4891C10.6816 60.4723 10.2264 60.6322 9.87197 60.9373C9.51751 61.2424 9.28959 61.6704 9.23329 62.1367H9.22ZM14.8827 62.6859C14.8827 60.6499 16.3848 59.23 18.5249 59.23C19.8276 59.23 20.8777 59.7658 21.3961 60.7972L20.1732 61.5071C19.7744 60.8642 19.1762 60.5695 18.5116 60.5695C17.3418 60.5695 16.4645 61.3732 16.4645 62.6859C16.4645 64.0119 17.3418 64.8022 18.5116 64.8022C19.1762 64.8022 19.7744 64.5075 20.1732 63.8646L21.3961 64.5745C20.8644 65.5791 19.8276 66.1551 18.5249 66.1551C16.3981 66.1551 14.8827 64.7219 14.8827 62.6859ZM28.6805 62.1903V66.0747H27.112V62.4046C27.112 61.1991 26.5271 60.6097 25.5169 60.6097C24.387 60.6097 23.6293 61.2928 23.6293 62.6457V66.0747H22.0608V56.6583H23.6293V60.0873C24.1477 59.5247 24.9453 59.2166 25.8758 59.2166C27.4842 59.2166 28.6805 60.1543 28.6805 62.1903ZM37.2012 62.6859C37.2012 64.8022 35.739 66.1685 33.7849 66.1685C32.9209 66.1685 32.1765 65.8738 31.6315 65.2576V68.5393H30.063V59.297H31.5518V60.1811C32.0835 59.5381 32.8677 59.2166 33.7849 59.2166C34.2421 59.1973 34.6982 59.2745 35.124 59.4432C35.5499 59.6119 35.936 59.8685 36.2576 60.1964C36.5793 60.5243 36.8294 60.9163 36.9919 61.3473C37.1544 61.7784 37.2256 62.2388 37.2012 62.6993V62.6859ZM35.606 62.6859C35.606 61.3866 34.742 60.5695 33.6121 60.5695C32.469 60.5695 31.6182 61.4 31.6182 62.6859C31.6182 63.9718 32.469 64.8022 33.6121 64.8022C34.7553 64.8022 35.606 63.9718 35.606 62.6859ZM37.5202 62.6859C37.5202 60.6499 39.0223 59.23 41.0826 59.23C43.1829 59.23 44.6717 60.6633 44.6717 62.6859C44.6717 64.7219 43.1829 66.1685 41.0826 66.1685C39.0223 66.1685 37.5202 64.7219 37.5202 62.6859ZM43.1031 62.6859C43.1031 61.3866 42.2391 60.5695 41.0959 60.5695C39.966 60.5695 39.102 61.4 39.102 62.6859C39.102 63.9718 39.966 64.8022 41.0959 64.8022C42.2391 64.8022 43.0898 63.9718 43.0898 62.6859H43.1031ZM45.3496 57.2208C45.3496 56.685 45.775 56.2832 46.3465 56.2832C46.9181 56.2832 47.3568 56.685 47.3568 57.194C47.3568 57.7432 46.9447 58.1853 46.3465 58.1853C45.775 58.1853 45.3496 57.77 45.3496 57.2342V57.2208ZM45.5623 59.297H47.1308V66.0613H45.5623V59.297ZM55.2128 62.1903V66.0747H53.6177V62.4046C53.6177 61.1991 53.0328 60.6097 52.0225 60.6097C50.9059 60.6097 50.1483 61.2928 50.1483 62.6457V66.0747H48.5664V59.297H50.0552V60.1811C50.3471 59.8603 50.7059 59.6086 51.1058 59.4442C51.5057 59.2797 51.9368 59.2066 52.3681 59.23C53.9899 59.2166 55.1862 60.1409 55.1862 62.1903H55.2128ZM60.6229 65.7131C60.1805 66.027 59.6484 66.1869 59.1076 66.1685C57.6454 66.1685 56.7946 65.3648 56.7946 63.878V60.6097H55.678V59.364H56.7946V57.8102H58.3632V59.364H60.171V60.6231H58.3632V63.8512C58.3632 64.5209 58.6955 64.8692 59.2937 64.8692C59.626 64.8692 59.945 64.7754 60.1843 64.5879L60.6229 65.7131Z" fill="#1A1A1A"/>
<path d="M46.9702 70.6696V71.3929H46.1992V70.6696H46.9702ZM49.9212 71.3259L49.7883 71.3929L49.6553 71.4331L49.5756 71.4465H49.5224C49.461 71.4474 49.4 71.436 49.3429 71.413C49.2859 71.39 49.234 71.3558 49.1901 71.3125L49.0837 71.1786C49.0439 71.125 49.0306 71.0714 49.004 71.0044C48.8748 71.1555 48.7165 71.2785 48.5387 71.3661L48.3261 71.4331C48.1268 71.4749 47.9199 71.461 47.7279 71.3929C47.6215 71.3527 47.5285 71.2857 47.4354 71.2188C47.3546 71.1443 47.2911 71.0529 47.2493 70.9509C47.1962 70.8437 47.1829 70.7231 47.1829 70.5892C47.1829 70.482 47.1962 70.3883 47.2493 70.3079C47.2976 70.2176 47.3658 70.1397 47.4487 70.0802L47.7279 69.9329L48.0469 69.8123L48.3792 69.7185L48.6451 69.6114C48.7179 69.5771 48.7851 69.532 48.8445 69.4774C48.8976 69.4373 48.9242 69.3837 48.9242 69.3301C48.9288 69.2743 48.9158 69.2184 48.8872 69.1703C48.8586 69.1222 48.8158 69.0844 48.7647 69.0622C48.7248 69.0488 48.6717 69.022 48.6052 69.022L48.4324 69.0086L48.2596 69.022L48.1001 69.1024C48.0602 69.1292 48.0203 69.1828 47.9937 69.2363C47.9539 69.2899 47.9406 69.3569 47.9273 69.4239H47.2626C47.2678 69.2734 47.3088 69.1264 47.3823 68.9952C47.4504 68.8739 47.542 68.7676 47.6516 68.6824C47.7612 68.5973 47.8865 68.5352 48.0203 68.4996C48.1532 68.4595 48.2862 68.4327 48.4191 68.4327C48.5786 68.4327 48.7248 68.4595 48.8711 68.4862C49.0173 68.5264 49.1369 68.58 49.2432 68.6604C49.3496 68.7407 49.4293 68.8211 49.4958 68.9283C49.5623 69.0622 49.5889 69.1962 49.5889 69.3569V70.7499C49.5889 70.7901 49.6022 70.8169 49.6287 70.8571C49.6553 70.8973 49.6819 70.8973 49.7351 70.8973H49.7883C49.8148 70.8973 49.8813 70.8705 49.9212 70.8303V71.3125V71.3259ZM48.9109 70.0132C48.8711 70.04 48.8179 70.0668 48.7381 70.0802L48.5254 70.1472L48.2729 70.2142L48.0469 70.3079C47.9804 70.3347 47.9273 70.3749 47.8874 70.4151C47.8475 70.4553 47.8342 70.5222 47.8342 70.5758C47.8342 70.6294 47.8342 70.683 47.8608 70.7098C47.8874 70.7633 47.9007 70.7901 47.9406 70.8169L48.0469 70.8839H48.1532C48.2862 70.8839 48.4191 70.8437 48.552 70.7633C48.685 70.683 48.8179 70.5356 48.9242 70.3615V70.0132H48.9109ZM50.3731 68.513V67.9371C50.3731 67.8433 50.3864 67.7629 50.4263 67.696C50.4658 67.6151 50.5217 67.5435 50.5904 67.4858C50.6591 67.4281 50.739 67.3856 50.8251 67.3611C50.9535 67.3187 51.0896 67.305 51.2239 67.3209L51.3568 67.3343C51.41 67.3343 51.4631 67.3611 51.5296 67.3879L51.7556 67.4682V68.004L51.5296 67.9237L51.3834 67.8835L51.2903 67.8701H51.2504L51.1707 67.8835L51.1042 67.9237C51.0776 67.9371 51.0643 67.9638 51.0643 67.9906C51.0378 68.004 51.0378 68.0442 51.0378 68.071V68.4862H51.5695V69.0488H51.0378V71.3795H50.3731V69.0488H49.9212V68.4996L50.3731 68.513ZM51.7556 68.513H52.2474L52.3537 68.8613C52.4335 68.7273 52.5265 68.6202 52.6196 68.5532C52.7126 68.4862 52.819 68.4595 52.9253 68.4595L53.0981 68.4728L53.364 68.58V69.1694L53.1779 69.1024L53.0583 69.0756H52.9519C52.8589 69.0756 52.7924 69.0756 52.7259 69.1158L52.5531 69.2497C52.4612 69.378 52.4144 69.5336 52.4202 69.6918V71.4197H51.7423V68.513H51.7556ZM54.1483 67.4415V68.1112H53.4836V67.4415H54.1483ZM54.1483 68.513V71.3929H53.4836V68.513H54.1483ZM56.3416 69.5444C56.2884 69.3569 56.2219 69.2096 56.1422 69.1292C56.0491 69.0354 55.9428 68.9952 55.7966 68.9952C55.7035 68.9952 55.6105 69.022 55.5307 69.0756C55.4509 69.1292 55.3845 69.1962 55.318 69.2765C55.2059 69.4672 55.1462 69.6845 55.1452 69.9061C55.1452 70.04 55.1718 70.174 55.1984 70.2811C55.2473 70.4919 55.3641 70.6803 55.5307 70.8169C55.6105 70.8839 55.7035 70.9107 55.7966 70.9107C55.863 70.9107 55.9295 70.8973 55.9959 70.8571C56.0624 70.8169 56.1156 70.7767 56.1555 70.7231C56.2086 70.6562 56.2485 70.5892 56.2751 70.5088L56.3416 70.2543H57.0328C57.0062 70.4419 56.9663 70.616 56.8999 70.7633C56.8407 70.9044 56.7536 71.0318 56.6439 71.1377C56.5342 71.2437 56.4042 71.3259 56.2618 71.3795C55.9745 71.4828 55.6614 71.4876 55.3712 71.3929C55.1389 71.3176 54.9378 71.1669 54.7996 70.9643C54.7331 70.8705 54.6667 70.7633 54.6268 70.6562C54.5316 70.4228 54.4863 70.1717 54.4939 69.9195C54.4939 69.7052 54.5205 69.5176 54.5869 69.3301C54.6534 69.156 54.7464 68.9952 54.8528 68.8613C54.9724 68.7273 55.1186 68.6336 55.2648 68.5666C55.59 68.426 55.9564 68.4164 56.2884 68.5398C56.4213 68.5934 56.5409 68.6738 56.6473 68.7675C56.7403 68.8613 56.8334 68.9818 56.8999 69.1158C56.9663 69.2497 57.0062 69.3837 57.0328 69.5444H56.3416ZM59.9705 71.3259L59.8242 71.3929L59.7046 71.4331L59.6249 71.4465H59.5584C59.497 71.4474 59.436 71.436 59.3789 71.413C59.3219 71.39 59.2699 71.3558 59.2261 71.3125L59.1197 71.1786L59.04 71.0044C58.9147 71.1541 58.761 71.277 58.588 71.3661L58.3621 71.4331C58.167 71.4724 57.9651 71.4585 57.7772 71.3929C57.6442 71.3527 57.5645 71.2857 57.4847 71.2188C57.3991 71.1457 57.3309 71.0542 57.2853 70.9509C57.2455 70.8437 57.2189 70.7231 57.2189 70.5892C57.2189 70.482 57.2455 70.3883 57.2986 70.3079C57.3469 70.2176 57.4151 70.1397 57.498 70.0802L57.7639 69.9329C57.8835 69.8793 57.9766 69.8391 58.0962 69.8123L58.4152 69.7185L58.6811 69.6114C58.7585 69.5783 58.8303 69.5331 58.8938 69.4774C58.9336 69.4373 58.9735 69.3837 58.9735 69.3301C58.9771 69.2727 58.9622 69.2156 58.9311 69.1674C58.9 69.1191 58.8542 69.0822 58.8007 69.0622C58.7608 69.0488 58.7077 69.022 58.6412 69.022L58.4684 69.0086L58.2956 69.022C58.2424 69.0354 58.1892 69.0622 58.1494 69.1024C58.0962 69.1292 58.0563 69.1828 58.0297 69.2363C58.0031 69.2899 57.9766 69.3569 57.9766 69.4239H57.2986C57.3038 69.2734 57.3448 69.1264 57.4183 68.9952C57.4864 68.8739 57.578 68.7676 57.6876 68.6824C57.7971 68.5973 57.9225 68.5352 58.0563 68.4996C58.1892 68.4595 58.3222 68.4327 58.4684 68.4327C58.6279 68.4327 58.7741 68.4595 58.9203 68.4862C59.0533 68.5264 59.1862 68.58 59.2792 68.6604C59.3723 68.7407 59.4786 68.8211 59.5451 68.9283C59.5983 69.0622 59.6249 69.1962 59.6249 69.3569V70.7499C59.6249 70.7901 59.6381 70.8169 59.6647 70.8571C59.6913 70.8973 59.7312 70.8973 59.7711 70.8973H59.8375C59.8774 70.8973 59.9173 70.8705 59.9705 70.8303V71.3125V71.3259ZM58.9469 70.0132L58.7874 70.0802L58.5614 70.1472L58.3222 70.2142L58.0962 70.3079C58.0297 70.3347 57.9633 70.3749 57.9367 70.4151C57.9101 70.4553 57.8702 70.5222 57.8702 70.5758C57.8702 70.6294 57.8702 70.683 57.8968 70.7098L57.9766 70.8169L58.0829 70.8839H58.2025C58.3355 70.8839 58.4684 70.8437 58.6013 70.7633C58.7342 70.683 58.8539 70.5356 58.9602 70.3615V70.0132H58.9469Z" fill="#3199D0"/>
<path d="M52.1556 31.0079C52.1556 41.0807 44.9642 49.8542 35.1143 51.8099C32.3606 52.3904 29.52 52.4157 26.7565 51.8843C23.9931 51.3529 21.3614 50.2753 19.0133 48.7137C16.6653 47.1521 14.6474 45.1374 13.076 42.7859C11.5047 40.4344 10.411 37.7926 9.85813 35.0129C7.91739 25.5563 12.9686 15.7246 21.8747 11.6258C22.6856 11.224 22.6856 11.224 22.9382 12.1482C23.6826 14.8941 24.4004 17.6668 25.1846 20.3993C25.3176 20.8547 25.2777 21.0825 24.8257 21.337C22.8881 22.5278 21.355 24.2834 20.4293 26.3715C19.5035 28.4595 19.2289 30.7817 19.6416 33.0305C20.0805 35.3491 21.223 37.4731 22.9111 39.1094C24.5993 40.7458 26.7499 41.8137 29.0661 42.1657C35.4732 43.1435 41.4283 38.5491 42.1063 32.0795C42.3779 29.2408 41.5799 26.403 39.8708 24.1299C38.1617 21.8568 35.6666 20.3147 32.8811 19.81C32.2298 19.7162 31.5917 19.6224 30.9404 19.6224C30.6745 19.6224 30.5416 19.5555 30.4884 19.2608L28.0559 10.2194C27.8963 9.67018 28.3483 9.80412 28.5477 9.80412C30.0746 9.60826 31.62 9.60826 33.147 9.80412C38.3311 10.4203 42.7576 12.5768 46.3466 16.3943C50.0807 20.322 52.1581 25.5554 52.1423 30.9945L52.1556 31.0079Z" fill="#3099CF"/>
<path d="M23.4962 30.4187C23.5626 28.3961 24.6925 26.3333 26.8991 24.8733C27.2447 24.6456 27.3112 24.4447 27.2181 24.0562C26.0218 19.6226 24.8254 15.1889 23.6557 10.7151C23.5855 10.4426 23.4142 10.2077 23.1771 10.0588L20.8376 8.78628C20.7024 8.72349 20.5831 8.63058 20.4887 8.51457C20.3943 8.39856 20.3272 8.26246 20.2926 8.11655C19.854 6.45561 19.4419 4.86164 18.9899 3.24088C18.857 2.85244 18.9899 2.75867 19.3488 2.58454C19.9071 2.39702 20.2793 2.49078 20.7446 2.87923C21.582 3.62933 22.4859 4.32585 23.3632 5.03577C23.8551 5.43761 24.1475 5.33045 24.3735 4.76788L25.7028 1.28526C25.8357 0.963786 26.6997 0.508367 26.9922 0.561946C27.1517 0.60213 27.1517 0.762866 27.1915 0.896813L28.5474 5.98679C28.5729 6.1081 28.5743 6.23331 28.5515 6.35517C28.5287 6.47703 28.4821 6.59312 28.4145 6.69671C27.9359 7.487 27.484 8.26389 26.9922 9.01399C26.9141 9.13329 26.8651 9.2694 26.8489 9.41134C26.8327 9.55328 26.8499 9.69706 26.8991 9.83107L30.4881 23.2124C30.5812 23.5606 30.7141 23.6946 31.0996 23.6946C32.92 23.743 34.6575 24.4718 35.9743 25.7393C37.2911 27.0068 38.0932 28.7224 38.2245 30.5526C38.3485 32.4207 37.762 34.2662 36.5843 35.7142C35.4066 37.1622 33.7259 38.104 31.8839 38.3483C27.4441 39.0181 23.4962 35.5756 23.4962 30.4187Z" fill="#3199CF"/>
</g>
<defs>
<clipPath id="clip0_645_8056">
<rect width="59.6444" height="70.8981" fill="white" transform="translate(0.978516 0.5625)"/>
</clipPath>
</defs>
</svg>
